PathFileType	4	(X/Y/Z)	C:/Users/opensim2020/Desktop/walking_exp_matlab/subject03_walking15_straight_01.trc																																																																																																																																											
DataRate	CameraRate	NumFrames	NumMarkers	Units	OrigDataRate	OrigDataStartFrame	OrigNumFrames																																																																																																																																							
100	100	4	47	mm	100	623	196																																																																																																																																							
Frame#	Time	LFHD			RFHD			LBHD			RBHD			C7			T10			CLAV			STRN			RBAK			LSHO			LUPA			LELB			LFRM			LWRA			LWRB			LFIN			RSHO			RUPA			RELB			RFRM			RWRA			RWRB			RFIN			LASI			RASI			LPSI			RPSI			LTHI			LKNE			LTIB			LANK			LHEE			LTOE			RTHI			RKNE			RTIB			RANK			RHEE			RTOE			*39			*40			*41			*42			*43			*44			*45			*46		
		X1	Y1	Z1	X2	Y2	Z2	X3	Y3	Z3	X4	Y4	Z4	X5	Y5	Z5	X6	Y6	Z6	X7	Y7	Z7	X8	Y8	Z8	X9	Y9	Z9	X10	Y10	Z10	X11	Y11	Z11	X12	Y12	Z12	X13	Y13	Z13	X14	Y14	Z14	X15	Y15	Z15	X16	Y16	Z16	X17	Y17	Z17	X18	Y18	Z18	X19	Y19	Z19	X20	Y20	Z20	X21	Y21	Z21	X22	Y22	Z22	X23	Y23	Z23	X24	Y24	Z24	X25	Y25	Z25	X26	Y26	Z26	X27	Y27	Z27	X28	Y28	Z28	X29	Y29	Z29	X30	Y30	Z30	X31	Y31	Z31	X32	Y32	Z32	X33	Y33	Z33	X34	Y34	Z34	X35	Y35	Z35	X36	Y36	Z36	X37	Y37	Z37	X38	Y38	Z38	X39	Y39	Z39	X40	Y40	Z40	X41	Y41	Z41	X42	Y42	Z42	X43	Y43	Z43	X44	Y44	Z44	X45	Y45	Z45	X46	Y46	Z46	X47	Y47	Z47
																																																																																																																																														
123	1.22	464.35886	1624.19519	1390.13318	466.83224	1634.4519	1522.21289	345.54343	1561.7981	1401.63867	353.0047	1572.21765	1531.86658	337.22861	1406.83716	1465.39429	323.41245	1095.45203	1462.01306	464.0303	1340.16589	1459.65369	519.72089	1178.5271	1447.93201	302.18747	1227.08728	1557.50134	409.08948	1375.8938	1307.71069	432.6608	1186.52319	1230.59106	472.45172	1074.4303	1219.40906	574.66492	1009.29871	1244.30664	667.18573	958.87689	1301.88367	658.47955	933.19971	1254.10291	733.43457	910.74548	1277.70154	420.69891	1359.06555	1621.89844	411.24316	1137.00317	1694.91846	416.43671	1023.83942	1707.95581	413.6897	886.41986	1712.69092	424.96783	785.82013	1678.09937	397.33664	787.26563	1725.36951	401.16742	710.64148	1712.52698	477.17328	930.12408	1332.71423	501.80609	944.09454	1569.14319	320.75723	947.66425	1399.25037	336.46866	967.36432	1545.24536	431.53638	625.48364	1280.34338	453.87271	446.15027	1292.10449	293.94821	333.60846	1310.01599	133.16452	211.77533	1365.40027	92.78161	228.78168	1411.41895	168.72002	64.60616	1378.63696	487.71616	649.69757	1618.72595	536.32733	479.45911	1574.06458	503.54999	286.55365	1578.92798	479.70651	73.26083	1529.05078	432.40256	41.06956	1480.64099	619.96735	36.57663	1503.52576	373.37964	1671.36865	1439.36914	NaN	NaN	NaN	NaN	NaN	NaN	NaN	NaN	NaN	NaN	NaN	NaN	NaN	NaN	NaN	NaN	NaN	NaN	NaN	NaN	NaN
124	1.23	477.29791	1625.61426	1389.97205	480.21567	1635.83716	1522.2428	358.39386	1563.52307	1402.10486	366.2283	1573.95288	1532.24756	349.82651	1408.5188	1466.19543	335.77066	1097.02222	1462.48218	476.45325	1341.6676	1459.50989	531.96338	1179.96814	1447.54114	315.28699	1228.60876	1558.9187	420.41083	1377.35742	1307.76794	441.94766	1187.3269	1230.97192	481.22034	1074.80786	1219.82129	582.66364	1007.96454	1244.50012	674.42804	955.94849	1301.39417	665.27972	930.46051	1253.4668	739.82068	905.95013	1277.74548	434.46988	1360.51892	1622.0321	427.64694	1138.49719	1695.7229	433.7616	1025.44995	1708.94189	432.80969	887.98859	1713.6449	445.03937	787.66034	1678.92639	418.03235	788.58917	1726.26917	423.47623	712.23651	1713.51404	489.00089	931.34387	1332.76563	514.17981	945.2644	1569.59888	333.17722	949.22125	1399.80078	348.6987	969.20166	1545.83667	450.42746	627.56262	1281.01379	478.62363	449.14096	1291.81616	319.79721	335.90097	1310.2804	160.18988	211.65344	1365.65527	118.59581	226.72415	1411.20557	201.213	65.65662	1377.43127	495.87988	650.5481	1618.92419	540.59863	479.12457	1574.37451	505.3378	286.65561	1579.00464	479.5549	73.43732	1529.01526	432.33719	41.36484	1480.4978	619.91687	36.54388	1503.57336	386.51236	1672.80566	1439.24097	NaN	NaN	NaN	NaN	NaN	NaN	NaN	NaN	NaN	NaN	NaN	NaN	NaN	NaN	NaN	NaN	NaN	NaN	NaN	NaN	NaN
125	1.24	490.29034	1626.89709	1390.23254	493.60538	1637.22803	1522.22742	371.19598	1565.30786	1402.52124	379.40729	1575.70166	1532.53418	362.45438	1410.18774	1466.94189	347.91638	1098.61377	1462.98853	488.80191	1343.17212	1459.34375	544.11438	1181.43787	1447.22009	328.27551	1230.19055	1560.01196	431.65228	1378.96448	1307.7738	451.00842	1188.30579	1231.27783	489.76349	1075.13831	1220.58362	590.39246	1006.37756	1244.56934	681.38934	952.13318	1300.86597	671.58606	927.1875	1252.65662	745.63184	900.39905	1277.31372	447.97382	1362.02905	1622.0564	443.98999	1139.9884	1696.27075	451.23196	1027.15295	1709.70288	452.25375	889.82452	1714.50916	465.86374	789.68982	1679.24255	439.13336	790.10797	1727.12256	446.26688	714.10785	1714.52795	501.38126	933.39801	1333.42554	526.25635	946.4389	1570.15588	345.60297	951.03601	1400.29089	360.73184	970.91577	1546.32874	469.71439	629.79913	1281.72131	502.88034	452.59378	1291.93689	345.5444	337.32639	1310.45459	188.16844	209.80505	1365.58899	145.06343	222.81007	1410.88196	235.46324	66.30244	1377.26062	504.22617	651.43744	1619.01123	544.54211	478.81934	1574.55835	506.73898	286.87289	1579.04626	479.53671	73.68192	1528.89282	432.44424	41.71617	1480.17957	619.94281	36.54272	1503.61572	399.83975	1674.59009	1439.98584	NaN	NaN	NaN	NaN	NaN	NaN	NaN	NaN	NaN	NaN	NaN	NaN	NaN	NaN	NaN	NaN	NaN	NaN	NaN	NaN	NaN
126	1.25	503.17847	1628.22437	1389.9834	506.95398	1638.45593	1522.14063	383.87674	1567.12939	1402.91443	392.53314	1577.46558	1532.80286	374.91647	1411.84607	1467.54724	360.29572	1100.09607	1463.56726	501.13113	1344.60034	1459.17725	556.22839	1182.82764	1446.96777	341.03357	1231.8269	1560.86731	442.83197	1380.61475	1307.81421	459.90109	1189.24878	1231.57837	498.40793	1075.63123	1221.46252	597.89307	1004.56323	1244.53857	687.99042	947.98022	1300.15991	677.37866	923.45898	1251.71497	750.70575	894.14691	1276.31982	461.29279	1363.59473	1622.09229	460.21573	1141.59619	1696.61731	468.98721	1028.979	1710.1543	472.03598	891.73309	1715.14441	486.67776	791.88391	1679.68628	460.54413	791.87421	1728.05115	469.53864	716.07117	1715.56213	514.14294	935.45715	1334.27051	538.15863	947.61267	1570.85803	358.17566	953.02606	1400.52954	372.82953	972.50653	1546.69873	489.0144	632.09503	1282.43335	526.66443	456.2088	1292.53516	371.45877	337.8595	1310.79834	216.90712	206.40028	1365.56482	172.27908	217.09412	1410.5415	271.50433	65.52097	1376.74219	512.70978	652.10944	1618.97168	548.21112	478.44992	1574.73242	507.78137	287.19452	1579.14453	479.38873	73.96569	1528.67603	432.45154	42.13306	1480.02344	619.96362	36.50224	1503.66077	413.24414	1676.38318	1440.24231	NaN	NaN	NaN	NaN	NaN	NaN	NaN	NaN	NaN	NaN	NaN	NaN	NaN	NaN	NaN	NaN	NaN	NaN	NaN	NaN	NaN
